PathFileType	4	(X/Y/Z)	s09c0303.trc
DataRate	CameraRate	NumFrames	NumMarkers	Units	OrigDataRate	OrigDataStartFrame	OrigNumFrames
200	200	4	50	mm	200	1500	2000
Frame#	Time	racr			lacr			c7			jug			rlel			rdr			llel			ldr			s2			lic			ric			lasi			rasi			rpsi			lpsi			rgt			lgt			rth1			rth2			rth3			rth4			rlfc			rmfc			rsh1			rsh2			rsh3			rsh4			rlmal			rmmal			rcal			rtoe			rmt5			lth1			lth2			lth4			lth3			llfc			lmfc			llmal			lmmal			lcal			lmt5			lsh1			lsh2			lsh3			lsh4			ltoe			SBIKE			LBIKE			RBIKE			
		X1	Y1	Z1	X2	Y2	Z2	X3	Y3	Z3	X4	Y4	Z4	X5	Y5	Z5	X6	Y6	Z6	X7	Y7	Z7	X8	Y8	Z8	X9	Y9	Z9	X10	Y10	Z10	X11	Y11	Z11	X12	Y12	Z12	X13	Y13	Z13	X14	Y14	Z14	X15	Y15	Z15	X16	Y16	Z16	X17	Y17	Z17	X18	Y18	Z18	X19	Y19	Z19	X20	Y20	Z20	X21	Y21	Z21	X22	Y22	Z22	X23	Y23	Z23	X24	Y24	Z24	X25	Y25	Z25	X26	Y26	Z26	X27	Y27	Z27	X28	Y28	Z28	X29	Y29	Z29	X30	Y30	Z30	X31	Y31	Z31	X32	Y32	Z32	X33	Y33	Z33	X34	Y34	Z34	X35	Y35	Z35	X36	Y36	Z36	X37	Y37	Z37	X38	Y38	Z38	X39	Y39	Z39	X40	Y40	Z40	X41	Y41	Z41	X42	Y42	Z42	X43	Y43	Z43	X44	Y44	Z44	X45	Y45	Z45	X46	Y46	Z46	X47	Y47	Z47	X48	Y48	Z48	X49	Y49	Z49	X50	Y50	Z50	
1500	7.5000	759.056658	1229.140546	-90.833586	774.309640	1177.677096	-464.839448	780.955696	1279.416703	-284.839047	773.496386	1147.825465	-267.906343	574.821283	1060.518956	0.363219	720.624541	881.524248	-58.682356	558.272639	1028.110516	-567.230231	708.102650	877.458737	-452.712575	291.311102	1157.201099	-296.019950	431.921440	1092.747192	-424.189501	424.688432	1161.300330	-134.217551	455.402877	1035.340296	-387.404667	453.831730	1095.340260	-142.339966	322.676762	1193.293209	-241.141660	331.096153	1175.944683	-350.498588	390.194098	1041.529450	-73.585749	355.574460	967.625734	-441.665559	493.602551	943.628707	-72.632734	568.835039	899.308201	-84.529599	607.845430	821.179118	-82.507305	584.863198	914.706694	-113.003800	636.688177	721.870975	-108.626501	610.965400	706.750553	-205.735429	538.882857	695.670091	-76.471616	466.901486	643.383653	-87.516294	380.008181	633.974062	-83.121843	478.151031	619.092300	-116.375629	283.287865	595.941681	-79.121017	292.717326	600.573128	-155.895141	216.046262	642.196192	-114.949996	330.017834	404.508795	-134.043438	281.487738	468.270264	-65.582709	383.483749	839.116198	-431.848500	423.890637	766.082137	-416.791035	458.579780	774.670633	-404.601453	421.336976	676.136204	-404.054937	429.634654	584.174615	-384.650011	421.502844	571.014549	-290.321459	265.686895	257.965661	-411.227322	280.516391	258.986198	-336.345202	189.090073	238.916105	-374.525859	338.435861	144.230599	-433.099128	377.733103	497.701230	-414.005834	363.399983	412.488887	-407.636416	307.406328	343.800258	-410.802656	386.114634	403.602411	-375.612109	432.256376	144.216878	-362.001058	-64.407853	850.515586	-241.928879	21.179769	83.535439	-442.401580	21.141949	83.999580	-44.001646	
1501	7.5050	756.474333	1228.542497	-87.055050	778.436040	1177.659406	-460.098107	780.613229	1279.383604	-280.408543	773.723705	1148.221783	-263.736151	572.264503	1058.277539	1.276286	720.021470	881.467092	-58.818094	562.901050	1030.904683	-567.788109	709.942897	877.904413	-454.084884	292.127260	1156.538335	-300.176388	435.064459	1091.261631	-424.873392	422.911624	1161.852632	-135.591081	457.595343	1034.955169	-388.100914	452.951119	1096.119880	-142.507335	319.909083	1193.292742	-243.975414	333.058863	1174.389956	-354.454166	388.010026	1042.516235	-75.593273	358.346106	966.703252	-442.935940	494.023724	946.587577	-74.100797	571.216268	903.250106	-85.746809	611.391839	827.074533	-82.794783	587.710948	920.106509	-113.737742	643.374847	728.306782	-108.719475	617.234096	712.613469	-208.627095	546.160623	701.754378	-77.270253	474.398490	648.749234	-87.773426	387.813539	638.382043	-83.387009	485.955206	624.241763	-116.330674	290.958539	598.875391	-79.472364	300.131789	604.108941	-156.001005	222.242207	644.438057	-114.782620	341.654801	409.337382	-134.228665	291.463728	472.087335	-65.710245	382.686203	838.394986	-433.303152	420.926099	764.104480	-417.637266	455.513166	771.839302	-404.913790	415.789920	674.317385	-405.215089	421.526185	582.082230	-385.937588	412.526053	569.654208	-291.164662	257.442496	256.455637	-412.130658	272.298209	257.470763	-337.414588	180.948248	238.818133	-376.088541	327.830806	140.711515	-432.960088	369.606270	495.927256	-415.309338	355.328185	410.734924	-408.744259	299.486090	341.955164	-412.037478	378.046955	402.372649	-377.205853	421.103645	138.829024	-360.002918	-64.475892	850.492577	-241.928388	21.169265	83.500300	-442.394511	21.138809	83.994894	-43.983570	
1502	7.5100	753.779440	1228.084477	-82.921114	781.972218	1178.645415	-454.793423	780.287722	1279.394912	-275.639879	773.865667	1148.552312	-259.512746	569.678494	1056.128278	2.286222	719.438510	881.315566	-58.683732	567.353928	1033.768473	-568.028995	710.326515	877.686297	-453.352015	293.063114	1155.326203	-304.503868	438.206078	1090.180729	-425.459062	418.259990	1163.153643	-135.746475	460.254053	1033.048478	-387.333329	452.176147	1096.977944	-142.544145	319.786284	1192.629836	-247.491786	333.808627	1174.908359	-356.959444	385.855630	1043.334920	-77.355181	361.395382	966.168071	-444.392049	494.153045	949.491662	-75.384067	571.736726	908.666442	-86.214488	614.470178	832.768376	-83.095842	589.004966	925.301359	-114.101292	649.785942	734.808841	-108.701094	624.980745	717.840903	-205.553812	552.831129	707.697506	-77.813660	481.731528	653.740733	-87.930324	395.061794	642.532235	-83.692485	493.745785	628.718416	-116.094229	298.502504	600.959442	-79.819223	307.555064	606.851278	-156.039491	228.309297	645.866561	-114.567953	353.338401	413.661588	-134.470584	301.755922	475.135471	-65.856023	382.011825	838.242114	-434.865084	418.076828	762.924333	-418.922001	452.601241	769.726886	-405.383074	410.623632	673.345376	-407.244564	413.652959	580.616486	-387.576635	404.030938	568.619750	-292.474945	249.244471	255.432066	-413.120364	264.471479	256.852726	-338.384905	173.025632	239.355687	-377.034977	317.164842	137.577586	-432.774082	361.720449	494.739316	-416.910284	347.421740	409.614188	-410.355818	291.616559	340.765574	-413.464582	369.832126	401.037958	-378.267378	411.051503	134.826074	-359.911393	-64.526755	850.494157	-241.931152	21.160017	83.489603	-442.385701	21.122517	84.003062	-43.984897	
1503	7.5150	751.153103	1227.356040	-78.700716	785.274267	1179.979028	-449.709388	779.956686	1279.254745	-270.915282	774.023553	1148.683978	-255.493481	567.144280	1053.893203	3.446559	718.476931	880.938703	-58.622031	571.714615	1036.758401	-568.004433	710.932435	877.829498	-453.072726	293.681049	1154.987576	-308.046006	441.294032	1089.525810	-425.962369	415.560164	1164.102252	-137.092306	462.546866	1031.999901	-384.687674	451.283457	1098.044799	-142.560399	319.967192	1191.731205	-251.111352	336.179215	1175.030912	-358.507300	383.701054	1044.213072	-78.959490	364.410750	966.270109	-446.167457	493.913543	952.392659	-76.307994	572.790462	912.983797	-87.247880	618.061529	837.752551	-84.822932	590.150270	930.391326	-114.300156	655.809700	741.196484	-108.448223	631.577121	723.513491	-205.063073	559.215608	713.294769	-78.323317	488.664555	658.574676	-87.946979	402.262683	645.993738	-83.885461	501.182445	633.355482	-115.952310	306.444603	602.342776	-79.955294	314.876363	608.936694	-156.152965	234.022674	646.346360	-114.567488	365.196036	417.490686	-134.646526	312.120720	477.608858	-65.843964	381.377861	838.665063	-436.445919	415.459214	762.337836	-420.421773	449.883080	768.275523	-406.084701	405.701892	672.873802	-409.619793	406.200999	579.900949	-389.655117	396.251382	567.933402	-294.298251	240.915195	255.184650	-413.660200	256.588611	256.795943	-339.328124	165.039012	240.953317	-377.158175	306.497289	135.320064	-432.586773	354.088201	494.354620	-418.788933	339.724778	409.198051	-411.988545	283.688066	340.457251	-414.837267	362.118378	400.633332	-379.897732	402.470110	132.665443	-361.370762	-64.547934	850.477825	-241.945925	21.146604	83.474476	-442.391012	21.110917	83.976433	-43.988798	
